{"accessors":[{"bufferView":1,"componentType":5126,"count":33231,"max":[8,9.2318449020385742,39.999996185302734],"min":[-8.0000009536743164,-12.66300106048584,-8.095265002339147e-06],"type":"VEC3"},{"bufferView":1,"byteOffset":398772,"componentType":5126,"count":33231,"max":[1,0.9999157190322876,1],"min":[-1,-1,-1],"type":"VEC3"},{"bufferView":0,"componentType":5125,"count":33528,"max":[33230],"min":[0],"type":"SCALAR"}],"asset":{"generator":"Sketchfab (OSG glTF plugin)","version":"2.0"},"bufferViews":[{"buffer":0,"byteLength":134112,"byteOffset":0,"name":"ScalarBufferView","target":34962},{"buffer":0,"byteLength":797544,"byteOffset":134112,"byteStride":12,"name":"Vec3BufferView","target":34962}],"buffers":[{"byteLength":931656,"uri":"scene.bin"}],"extensionsRequired":["KHR_materials_pbrSpecularGlossiness"],"extensionsUsed":["KHR_materials_pbrSpecularGlossiness"],"materials":[{"doubleSided":true,"emissiveFactor":[0,0,0],"extensions":{"KHR_materials_pbrSpecularGlossiness":{"diffuseFactor":[0.1314425159,0.12772208660000001,0.1138036026,1],"glossinessFactor":0,"specularFactor":[0.125,0.125,0.125]}},"name":"Scene - Root","occlusionFactor":1}],"meshes":[{"primitives":[{"attributes":{"NORMAL":1,"POSITION":0},"indices":2,"material":0,"mode":4}]}],"nodes":[{"children":[1],"name":"RootNode (gltf orientation matrix)","rotation":[-0.70710678118654746,-0,-0,0.70710678118654757]},{"children":[2],"name":"RootNode (model correction matrix)"},{"children":[3],"name":"2260a9fb29984e8080451b19d197c92b.stl.cleaner"},{"mesh":0,"name":""}],"scene":0,"scenes":[{"name":"OSG_Scene","nodes":[0]}]}
